Coordinates
version=1
nRows=20
nColumns=34
inDegrees=yes

Units are S.I. units (second, meters, Newtons, ...)
If the header above contains a line with 'inDegrees', this indicates whether rotational values are in degrees (yes) or radians (no).

endheader
time	pelvis_tilt	pelvis_list	pelvis_rotation	pelvis_tx	pelvis_ty	pelvis_tz	hip_flexion_r	hip_adduction_r	hip_rotation_r	knee_angle_r	ankle_angle_r	subtalar_angle_r	mtp_angle_r	hip_flexion_l	hip_adduction_l	hip_rotation_l	knee_angle_l	ankle_angle_l	subtalar_angle_l	mtp_angle_l	lumbar_extension	lumbar_bending	lumbar_rotation	arm_flex_r	arm_add_r	arm_rot_r	elbow_flex_r	pro_sup_r	arm_flex_l	arm_add_l	arm_rot_l	elbow_flex_l	pro_sup_l
      3.81666670	     -2.44891611	      4.91664182	      2.12545856	      0.05075500	      0.86655944	      0.07991356	      1.63545717	      3.16715132	      5.67360983	     10.92311318	     12.03993474	     -8.29595004	      0.00000000	     24.95460310	     -2.45123299	     -8.74062842	     11.09958662	    -13.95776279	    -15.25092368	      0.00000000	     -8.78068385	     -3.62658030	      7.05889589	     88.26640676	     10.21583778	     67.61042029	    118.11489001	    108.14217867	     71.81827911	      8.19964132	     64.09201700	    133.86480290	     95.29853908
      3.83333330	     -2.55330825	      4.82224751	      2.10065848	      0.05116429	      0.86535578	      0.07912299	      1.57054708	      3.20827361	      6.01852208	     10.36541955	     11.41424849	     -8.13000121	      0.00000000	     24.80387822	     -2.42543677	     -9.25818170	     10.72705348	    -14.76198196	    -15.43109107	      0.00000000	     -8.49552727	     -3.43200422	      7.07598945	     88.03177546	     10.32275435	     67.61765517	    118.48097272	    108.12587974	     71.49696538	      8.16818881	     63.90097194	    133.43142629	     95.26535047
      3.85000000	     -2.65007674	      4.82942284	      2.21327558	      0.05075177	      0.86616099	      0.07915736	      1.54888762	      3.12987514	      6.36962242	      9.95330874	     10.78185422	     -8.38957440	      0.00000000	     24.50553855	     -2.20809462	     -9.67960940	     10.11009735	    -15.84668668	    -16.09545453	      0.00000000	     -8.15543795	     -3.36950893	      7.55075156	     87.45035439	      9.99694161	     67.37100798	    118.23645247	    108.05381126	     70.72854249	      8.57821104	     63.43900905	    132.14719501	     95.15184731
      3.86666670	     -2.65190305	      4.77449847	      2.52864062	      0.05124848	      0.86728617	      0.07864152	      1.56081925	      3.09971924	      6.49759267	      9.94861763	     10.69675933	     -8.32039982	      0.00000000	     24.46714798	     -2.09997975	     -9.81797108	     10.09130025	    -15.94321063	    -16.11903046	      0.00000000	     -8.16019073	     -3.25229554	      7.58274835	     87.39830716	     10.01192894	     67.37371423	    118.25479137	    108.05104698	     70.68863525	      8.61151238	     63.45141658	    132.11438594	     95.14859551
      3.88333330	     -2.60688519	      4.57255060	      2.57919563	      0.05119556	      0.86797729	      0.07829339	      1.38210753	      3.16485782	      6.70076988	      9.38752446	     10.39388159	     -8.31217919	      0.00000000	     24.14923809	     -2.20164097	    -10.07499565	      9.69968807	    -16.84672862	    -16.06914819	      0.00000000	     -8.07163718	     -2.76625403	      7.80321071	     86.51134223	     10.10089954	     67.54528322	    118.27066627	    108.02148210	     69.96992693	      9.04294223	     63.68549764	    131.80809016	     95.11893671
      3.90000000	     -2.58930053	      4.52999076	      2.74894043	      0.04951509	      0.86636687	      0.07830688	      1.44405039	      3.20109745	      6.81944753	      9.37458128	     10.35830962	     -8.27127051	      0.00000000	     24.16785281	     -2.11112302	    -10.09406049	      9.58419432	    -16.82543847	    -16.11170496	      0.00000000	     -8.12637746	     -2.74931265	      7.85446644	     86.44410397	     10.09086134	     67.55111440	    118.27616359	    108.01781713	     69.91500915	      9.04608141	     63.69821180	    131.78090912	     95.11547559
      3.91666670	     -2.76428961	      4.40813449	      2.65362870	      0.05035828	      0.86519042	      0.07851628	      1.61520298	      3.34532903	      7.50195675	      9.22551212	      9.95414649	     -8.76470891	      0.00000000	     24.12401498	     -2.11846957	    -10.08315007	      8.88769302	    -17.07900330	    -16.61372781	      0.00000000	     -7.52734877	     -2.65698672	      8.04936228	     85.19778871	      9.80407016	     67.28095159	    118.81284493	    107.87531359	     69.04623035	      9.06770058	     63.56011641	    130.92981548	     94.94504206
      3.93333330	     -2.74666043	      4.31010031	      2.61362090	      0.05143867	      0.86613105	      0.07757948	      1.77316564	      3.43360733	      7.63439967	      9.32792451	      9.89679655	     -8.79847895	      0.00000000	     24.07621499	     -2.12780679	     -9.73282189	      8.57565358	    -17.03484764	    -16.48908328	      0.00000000	     -7.54581836	     -2.48103450	      8.21355641	     85.13326064	      9.92924606	     67.20653660	    118.95233297	    107.85460995	     68.95150900	      8.91074414	     63.54468531	    130.75150967	     94.91690439
      3.95000000	     -2.75785119	      4.17643140	      2.63898988	      0.05123859	      0.86472551	      0.07752583	      1.70263635	      3.54011502	      8.11122819	      9.34356705	     10.29612058	     -8.90404201	      0.00000000	     24.13825603	     -2.24852225	     -9.39524924	      8.27777083	    -16.83960307	    -16.43141057	      0.00000000	     -7.44768357	     -2.19949303	      8.19913346	     84.97149643	     10.09312243	     67.11650419	    119.16001275	    107.82395247	     68.86512711	      8.61516769	     63.37874522	    130.25369304	     94.86783264
      3.96666670	     -2.72763047	      4.18262688	      2.62212672	      0.05117926	      0.86564067	      0.07730884	      1.63125043	      3.53045611	      8.10912378	      9.38355682	     10.29772367	     -8.90946253	      0.00000000	     24.24580679	     -2.27454234	     -9.38543954	      8.21729842	    -16.83363295	    -16.42996203	      0.00000000	     -7.45181494	     -2.20798825	      8.20533384	     84.96567757	     10.09751117	     67.11686694	    119.16397268	    107.82341590	     68.85712594	      8.60530741	     63.37599338	    130.24466638	     94.86691621
      3.98333330	     -2.82872067	      4.01202656	      2.67991901	      0.04975243	      0.86511644	      0.07778944	      1.76762763	      3.90221720	      8.09008219	      9.60306635	     10.18429361	     -9.61561389	      0.00000000	     24.47426568	     -2.37886009	     -8.84625064	      7.84138121	    -16.32355117	    -16.00188246	      0.00000000	     -7.13177710	     -2.24026841	      8.29457438	     84.44455035	      9.99985569	     66.87591169	    119.59306123	    107.68178640	     67.98018660	      8.21114400	     62.82279710	    128.96307123	     94.66096567
      4.00000000	     -2.91712254	      4.08760538	      2.46976064	      0.04959328	      0.86310000	      0.07735004	      1.81880709	      3.97287492	      7.76444942	      9.82002051	     10.07397991	     -9.78623369	      0.00000000	     24.65417395	     -2.19329924	     -8.66644803	      7.39866774	    -15.74624519	    -16.03645799	      0.00000000	     -7.03851569	     -2.29637746	      8.57860530	     84.53727281	     10.17038745	     66.80936853	    119.75727114	    107.65135976	     68.04437675	      7.85356276	     62.67719497	    128.66088388	     94.61411137
      4.01666670	     -2.95152805	      4.09742136	      2.53359984	      0.04952455	      0.86664643	      0.07768469	      1.70874076	      4.10412894	      7.73117521	      9.87894210	     10.01616179	     -9.78493876	      0.00000000	     24.87761815	     -2.10329800	     -8.66700955	      7.19321638	    -15.69903777	    -16.00593792	      0.00000000	     -7.12030650	     -2.39778034	      8.65773525	     84.51807760	     10.18415923	     66.82254379	    119.76934856	    107.64619615	     67.98980318	      7.79667575	     62.67368617	    128.62401216	     94.60608309
      4.03333330	     -2.95137815	      4.16176021	      2.35612298	      0.05031457	      0.86452541	      0.07759414	      1.56618266	      4.16352309	      7.37858354	      9.85993523	     10.07316477	     -9.97994235	      0.00000000	     24.99880732	     -2.07526415	     -8.59458090	      6.99355242	    -15.59581501	    -15.91022617	      0.00000000	     -7.11116603	     -2.64899753	      8.82226542	     84.38577389	     10.22753791	     66.86623748	    119.81994729	    107.63588400	     67.82685461	      7.69753009	     62.64411906	    128.63196440	     94.58873187
      4.05000000	     -3.07810165	      4.53085335	      2.48840565	      0.05129566	      0.86263074	      0.07684556	      1.44532771	      3.80187777	      7.08590960	      9.75448996	     10.09126078	    -10.38070366	      0.00000000	     25.21528384	     -1.61172651	     -8.84250554	      6.67501507	    -14.68403857	    -14.48113674	      0.00000000	     -6.43086235	     -3.07113645	      8.53919055	     82.85333834	     10.00171812	     66.71605127	    120.75678481	    107.44291232	     66.47879071	      7.23250854	     61.39251349	    128.45625108	     94.23355804
      4.06666670	     -3.02099827	      4.55339232	      2.39219265	      0.05046399	      0.86440072	      0.07739968	      1.42652233	      3.81398082	      6.89524071	      9.73921676	     10.20513826	    -10.51858394	      0.00000000	     25.26588800	     -1.71982885	     -8.84690747	      6.62639936	    -14.64787512	    -14.45078571	      0.00000000	     -6.39094201	     -3.18432721	      8.61132746	     82.80336157	     10.00934198	     66.71029785	    120.74239289	    107.43512138	     66.45259458	      7.21506734	     61.32677558	    128.49746359	     94.21583329
      4.08333330	     -3.12318005	      4.65627364	      2.45254479	      0.05126855	      0.86204663	      0.07670858	      1.56462203	      3.72060103	      6.67564814	      9.88864850	     10.66576663	    -10.86117506	      0.00000000	     25.63364283	     -1.60281714	     -8.91125007	      6.66557224	    -13.46670441	    -13.15113734	      0.00000000	     -5.94477306	     -3.16018185	      8.66456434	     82.18944338	      9.96508639	     66.28608100	    120.68152442	    107.21235185	     65.70598087	      7.19236859	     59.41510538	    128.52861652	     93.72442150
      4.10000000	     -3.06080253	      4.69614693	      2.33552156	      0.05115801	      0.86318613	      0.07659795	      1.62771647	      3.67166318	      6.62582065	      9.86167056	     10.72764413	    -10.92337290	      0.00000000	     25.70897976	     -1.66506565	     -8.82577128	      6.59218205	    -13.42316014	    -13.11009328	      0.00000000	     -5.98682065	     -3.14211956	      8.65342235	     82.17242551	      9.97345771	     66.29495266	    120.68941279	    107.20763580	     65.69821864	      7.14957993	     59.37889305	    128.48656306	     93.71148769
      4.11666670	     -3.05583021	      4.72045351	      2.58399275	      0.05171649	      0.86582324	      0.07684952	      1.53292818	      3.66099023	      6.44067696	      9.82744508	     10.78978896	    -11.17736691	      0.00000000	     25.63022933	     -1.64080932	     -8.88782173	      6.24599316	    -13.19775786	    -12.44738043	      0.00000000	     -5.65537433	     -3.16319450	      8.36328250	     81.73621871	     10.13778773	     66.52338602	    121.02966416	    107.06086274	     65.04966588	      7.16638110	     58.45824638	    128.38331214	     93.32678673
      4.13333330	     -2.95686113	      4.72170476	      2.64612476	      0.05252695	      0.86538274	      0.07659779	      1.46810598	      3.68362773	      6.41791591	      9.92183798	     10.76276868	    -11.17533790	      0.00000000	     25.66758433	     -1.69394116	     -8.89069087	      6.23055897	    -13.22296747	    -12.42127599	      0.00000000	     -5.57628240	     -3.18167872	      8.43670929	     81.75310417	     10.19546679	     66.53284708	    121.04977876	    107.05666577	     65.02119376	      7.19610713	     58.46990321	    128.40907629	     93.31815855
